<svg>

            
  <path d="M41.0723 2.49468C41.5259 3.35648 41.2991 4.0822 40.9816 4.85328C40.4826 6.1233 40.6187 7.34796 41.5259 8.39119C42.433 9.47978 43.703 9.61585 45.0184 9.3437C46.8327 8.93548 47.8759 7.21189 47.6038 5.30686C47.4677 4.39971 46.9234 3.49255 47.4224 2.49468C46.9688 2.72147 46.9688 2.72147 46.4245 3.62862C45.9256 3.03897 45.472 2.40396 44.9277 1.76895C44.4741 1.27002 44.0205 0.816441 44.2927 0C43.7484 0.272147 43.4762 0.635007 43.2948 1.08858C43.1587 1.54216 43.068 1.99574 42.9773 2.44932C42.8866 2.9029 42.6598 3.31112 42.2062 3.58326C41.9341 3.08433 41.6619 2.72147 41.0723 2.49468Z" fill="#fff"></path>
  <path d="M2.46593 28.9269V8.00648L0 7.60029V5.66307L6.43015 4.85069L7.52265 4.6958V5.53809V12.6481C7.77237 12.3981 8.08451 12.1169 8.45908 11.8982C8.80244 11.6482 9.20822 11.4295 9.61401 11.242C10.051 11.0545 10.488 10.8983 10.9874 10.7733C11.4869 10.6484 12.0175 10.5859 12.5794 10.5859C13.5782 10.5859 14.5147 10.7421 15.3887 11.0858C16.2627 11.4295 17.043 11.9607 17.6985 12.6793C18.354 13.4292 18.8847 14.3666 19.2904 15.5539C19.665 16.7412 19.8835 18.1472 19.8835 19.8657C19.8835 21.3343 19.665 22.6778 19.228 23.9589C18.791 25.24 18.1355 26.3023 17.2927 27.2397C16.4499 28.177 15.4199 28.8957 14.2337 29.4268C13.0164 29.958 11.6742 30.2392 10.1447 30.2392C9.08337 30.2392 8.11572 30.1767 7.21051 30.083C6.33651 29.9893 5.55615 29.8643 4.90065 29.708C4.24515 29.5518 3.7145 29.4268 3.30872 29.2706C2.90293 29.1144 2.59079 29.0206 2.46593 28.9269ZM10.488 13.6167C9.8013 13.6167 9.20822 13.7416 8.7088 13.9916C8.20937 14.2416 7.80358 14.5228 7.52265 14.8352V27.2084C7.67872 27.4584 7.95965 27.6771 8.39665 27.8021C8.83365 27.9583 9.3643 28.0208 9.92615 28.0208C10.6753 28.0208 11.3308 27.8333 11.8614 27.4271C12.4233 27.0209 12.8603 26.4898 13.2349 25.8024C13.6094 25.115 13.8592 24.3026 14.0464 23.3965C14.2337 22.4904 14.3274 21.4905 14.3274 20.4594C14.3274 19.3971 14.2649 18.4285 14.1089 17.5536C13.9528 16.71 13.7343 15.9913 13.3909 15.3977C13.0788 14.804 12.673 14.3666 12.1736 14.0541C11.7366 13.7729 11.1435 13.6167 10.488 13.6167Z" fill="#fff"></path>
  <path d="M22.6094 29.6817V27.4633L24.9817 27.1509V14.4652L22.7342 13.7778V11.2782L28.3528 10.4658H28.4465L29.3205 11.1845V12.5593L29.2892 15.1214H29.3517C29.4765 14.7777 29.7262 14.3402 30.0696 13.8091C30.413 13.2779 30.85 12.7467 31.3494 12.2468C31.8488 11.7469 32.4419 11.3094 33.0974 10.9657C33.7529 10.622 34.4708 10.4346 35.2512 10.4346C35.5945 10.4346 35.8442 10.4346 36.0315 10.4658C36.2188 10.4971 36.3749 10.5283 36.4997 10.5596V16.2775C36.3749 16.1837 36.0627 16.09 35.5633 15.9962C35.0639 15.9025 34.4396 15.84 33.7529 15.84C33.3783 15.84 32.9725 15.8713 32.598 15.9025C32.2234 15.9338 31.8488 15.9963 31.5055 16.09C31.1621 16.1525 30.8812 16.2462 30.6002 16.3399C30.3193 16.4337 30.132 16.5274 29.976 16.6212V27.1196L34.065 27.5258V29.6817H22.6094Z" fill="#fff"></path>
  <path d="M40 29.8644V27.646L42.4035 27.3335V14.6479L40.1873 13.9293V11.4609L46.2429 10.6485L47.5227 10.522V11.3671V27.3023L49.8949 27.646V29.8644H40Z" fill="#fff"></path>
  <path d="M60.8996 23.7698C59.9624 23.7698 59.0898 23.7048 58.3142 23.5747C58.1203 23.7698 57.9587 23.9975 57.8294 24.2577C57.7002 24.5179 57.6355 24.8106 57.6355 25.1684C57.6355 25.5587 57.7002 25.8839 57.8617 26.1441C58.0233 26.3718 58.2496 26.567 58.5727 26.6971C58.8959 26.8272 59.2837 26.9247 59.8008 26.9573C60.3179 26.9898 60.8996 27.0223 61.5783 27.0223H64.9716C67.4278 27.0223 69.2376 27.4451 70.4656 28.2583C71.6614 29.1039 72.2754 30.47 72.2754 32.3564C72.2754 33.4948 71.9846 34.5681 71.3705 35.5113C70.7888 36.4546 69.9809 37.2352 68.9467 37.9182C67.9449 38.5687 66.7491 39.0891 65.4241 39.4469C64.0991 39.8046 62.7094 39.9998 61.2551 39.9998H61.2228C59.6069 39.9998 58.2496 39.8697 57.1184 39.577C55.9873 39.2842 55.0501 38.8939 54.3068 38.4061C53.5635 37.9182 53.0464 37.3002 52.6909 36.6172C52.3354 35.9342 52.1738 35.1536 52.1738 34.3404C52.1738 33.82 52.2708 33.3322 52.4647 32.8443C52.6586 32.3889 52.9171 31.9661 53.2403 31.5758C53.5635 31.1855 53.919 30.8603 54.3714 30.5675C54.7916 30.2748 55.244 30.0471 55.6965 29.8845C55.0501 29.5267 54.533 29.1039 54.1775 28.5835C53.822 28.0631 53.6604 27.4451 53.6604 26.7296C53.6604 25.8514 53.8867 25.1359 54.3391 24.5179C54.7916 23.9324 55.3733 23.3795 56.0843 22.9242C54.9208 22.4038 54.0806 21.6557 53.5312 20.6799C52.9818 19.7042 52.6909 18.5658 52.6909 17.2648C52.6909 16.224 52.9171 15.3133 53.3696 14.4677C53.822 13.622 54.4684 12.9065 55.244 12.321C56.052 11.7356 56.9568 11.2802 58.0233 10.955C59.0898 10.6297 60.2209 10.4671 61.4167 10.4671H61.449C64.293 10.4671 66.3936 11.02 67.7833 12.1259C67.9449 11.9307 68.1711 11.7356 68.4296 11.5404C68.6882 11.3453 69.0114 11.1501 69.3668 10.9875C69.7223 10.8249 70.1102 10.6948 70.5303 10.5972C70.9504 10.4996 71.4029 10.4346 71.8876 10.4346H72.6956V14.2725H69.3345C69.4638 14.6303 69.5608 15.0206 69.6254 15.4109C69.69 15.8012 69.7223 16.2565 69.7223 16.7119C69.7223 17.7527 69.4961 18.6959 69.076 19.5416C68.6559 20.3872 68.0418 21.1353 67.2662 21.7858C66.4906 22.4038 65.5534 22.8916 64.4869 23.2494C63.3881 23.6072 62.2246 23.7698 60.8996 23.7698ZM60.027 30.6976C59.2837 30.6976 58.6051 30.6326 57.991 30.535C57.7648 30.7952 57.5386 31.1205 57.3447 31.5108C57.1508 31.9011 57.0538 32.4865 57.0538 33.1695C57.0538 33.9501 57.1508 34.6006 57.3447 35.121C57.5386 35.6414 57.8617 36.0968 58.2496 36.422C58.6374 36.7473 59.1545 37.0075 59.7362 37.1376C60.3179 37.3002 60.9966 37.3653 61.7722 37.3653H61.8045C62.4832 37.3653 63.1618 37.3002 63.8405 37.1376C64.4869 36.975 65.1009 36.7473 65.618 36.422C66.1351 36.0968 66.5552 35.674 66.8461 35.1861C67.1692 34.6982 67.3308 34.1128 67.3308 33.4623C67.3308 32.9744 67.2662 32.519 67.1692 32.1613C67.0723 31.8035 66.8784 31.5108 66.5875 31.2831C66.2967 31.0554 65.9412 30.8928 65.4564 30.7952C64.9716 30.6976 64.3576 30.6326 63.6143 30.6326H60.027V30.6976ZM61.3197 21.4931C61.9015 21.4931 62.3862 21.363 62.774 21.1353C63.1618 20.9076 63.4527 20.5824 63.6789 20.1921C63.9052 19.8018 64.0344 19.3139 64.1314 18.761C64.2283 18.208 64.2606 17.6226 64.2606 17.0371C64.2606 15.541 64.0344 14.4351 63.5497 13.7521C63.0649 13.0691 62.2893 12.7438 61.1582 12.7438H61.1258C60.0593 12.7438 59.2837 13.1016 58.799 13.7846C58.3142 14.4677 58.0556 15.4759 58.0556 16.8745C58.0556 17.5575 58.1203 18.1755 58.2172 18.7284C58.3142 19.2814 58.5081 19.7692 58.7343 20.1921C58.9929 20.5824 59.316 20.9076 59.7362 21.1353C60.1563 21.363 60.6734 21.4931 61.3197 21.4931Z" fill="#fff"></path>
  <path d="M74.5249 29.8643V27.6459L76.5538 27.3022V7.8262L74.0879 7.42V5.48279L80.4868 4.67041L80.8588 4.60791H81.5544L81.6105 10.6796L81.5544 13.0437C81.8354 12.7625 82.0163 12.7418 82.4845 12.4294C82.9528 12.1169 83.421 11.8357 83.9828 11.5857C84.5447 11.3358 85.169 11.1171 85.8245 10.9296C86.48 10.7734 87.1979 10.6796 87.9158 10.6796C88.9771 10.6796 89.8823 10.8359 90.5691 11.1171C91.2558 11.3983 91.8176 11.867 92.2546 12.4919C92.6916 13.1168 92.9413 13.8979 93.1286 14.8353C93.2847 15.7726 93.3783 16.8975 93.3783 18.1785V27.3022L95.6882 27.6459V29.8643H86.48V27.7084L88.3216 27.3334V18.1473C88.3216 17.3974 88.2904 16.7413 88.1968 16.1788C88.1343 15.6164 87.9783 15.179 87.7598 14.804C87.5413 14.4291 87.2603 14.1791 86.8858 14.0229C86.5112 13.8667 86.0118 13.7729 85.4187 13.7729C85.0753 13.7729 84.732 13.8042 84.3574 13.8979C83.9828 13.9916 83.6395 14.0854 83.3273 14.1791C82.984 14.3041 82.6718 14.4291 82.3909 14.5853C82.11 14.7415 81.8603 14.8978 81.6418 15.054V27.3334L83.8892 27.6771V29.8956H74.5249V29.8643Z" fill="#fff"></path>
  <path d="M99.3528 26.0391V13.9159H97.043V12.0411C97.1366 12.0099 97.2615 11.9786 97.4488 11.9162C97.636 11.8537 97.8233 11.7599 98.0418 11.6974C98.2291 11.635 98.4164 11.5412 98.6037 11.4787C98.791 11.4162 98.8846 11.3537 98.9158 11.3225C99.2904 11.0413 99.665 10.5101 100.071 9.72898C100.196 9.51026 100.289 9.2603 100.445 8.94785C100.601 8.63539 100.695 8.35418 100.82 8.04173C100.945 7.72928 101.07 7.41682 101.163 7.10437C101.288 6.79191 101.351 6.51071 101.444 6.26074H104.378L104.441 11.135H109.279V13.9471H104.441V23.0708C104.441 23.9456 104.441 24.633 104.472 25.1642C104.503 25.6954 104.566 26.0703 104.659 26.3203C104.753 26.5702 104.94 26.7577 105.159 26.8202C105.377 26.8827 105.689 26.9452 106.064 26.9452H106.095C106.345 26.9452 106.626 26.9139 106.938 26.8827C107.219 26.8515 107.5 26.789 107.781 26.7265C108.062 26.664 108.311 26.6015 108.561 26.539C108.811 26.4765 108.998 26.414 109.154 26.3515H109.185L109.966 28.2887C109.622 28.5387 109.248 28.7887 108.748 29.0386C108.249 29.2886 107.749 29.5073 107.156 29.726C106.563 29.9448 105.97 30.101 105.315 30.226C104.659 30.3509 104.035 30.4134 103.379 30.4134H103.348C102.63 30.4134 102.006 30.3197 101.507 30.1322C101.007 29.9448 100.57 29.6635 100.258 29.2886C99.9459 28.9137 99.7274 28.4762 99.5713 27.9138C99.4153 27.3514 99.3528 26.7577 99.3528 26.0391Z" fill="#fff"></path>
  <path d="M124.236 30.3369C123.268 30.3369 122.332 30.1495 121.426 29.7745C120.521 29.3996 119.741 28.8059 119.085 28.056C118.399 27.2749 117.868 26.3063 117.462 25.1502C117.056 23.9941 116.869 22.6193 116.869 21.0258C116.869 19.5573 117.088 18.2137 117.525 16.9639C117.962 15.7141 118.617 14.6205 119.429 13.6832C120.272 12.7458 121.27 12.0271 122.456 11.496C123.643 10.9648 124.985 10.7148 126.483 10.7148C127.014 10.7148 127.513 10.7461 128.044 10.8086C128.543 10.8711 129.043 10.9336 129.511 11.0273V7.56082L126.265 7.24837V5.6861L132.32 4.96745H132.414L133.225 4.86963V27.9935H135.192V29.7433C134.724 29.8683 134.193 29.9932 133.569 30.1495C132.945 30.3057 132.289 30.3682 131.602 30.3682C131.321 30.3682 131.04 30.3369 130.822 30.3057C130.603 30.2745 130.416 30.1807 130.26 30.0557C130.104 29.9308 129.979 29.7433 129.917 29.5246C129.854 29.3058 129.792 28.9934 129.792 28.6184V27.8998C129.511 28.2123 129.168 28.4935 128.793 28.8059C128.418 29.1184 128.013 29.3683 127.544 29.5871C127.076 29.8058 126.577 29.9932 126.015 30.1495C125.484 30.2432 124.891 30.3369 124.236 30.3369ZM125.765 27.8061C126.202 27.8061 126.608 27.7436 127.014 27.6498C127.388 27.5249 127.763 27.3999 128.075 27.2437C128.387 27.0874 128.668 26.9 128.918 26.7125C129.168 26.525 129.386 26.3375 129.542 26.1501V13.5894C129.48 13.4644 129.324 13.3395 129.136 13.2145C128.918 13.0895 128.699 12.9645 128.387 12.8708C128.106 12.777 127.763 12.6833 127.42 12.6521C127.076 12.5896 126.702 12.5583 126.296 12.5583C125.547 12.5583 124.86 12.6833 124.236 12.9645C123.58 13.2457 123.018 13.6832 122.519 14.3081C122.02 14.933 121.645 15.7453 121.364 16.7452C121.083 17.7451 120.927 18.9636 120.896 20.4009C120.865 21.682 120.989 22.8068 121.239 23.7442C121.489 24.6815 121.832 25.4314 122.269 26.0563C122.706 26.65 123.237 27.1187 123.83 27.3999C124.423 27.6498 125.079 27.8061 125.765 27.8061Z" fill="#fff"></path>
  <path d="M135.652 25.0931C135.652 24.312 135.808 23.5933 136.089 22.9684C136.37 22.3435 136.776 21.8123 137.307 21.3124C137.837 20.8437 138.43 20.4375 139.117 20.0938C139.804 19.7501 140.553 19.5002 141.365 19.2815C142.176 19.0627 143.019 18.9065 143.893 18.8128C144.767 18.719 145.641 18.6566 146.484 18.6253V17.7504C146.484 16.9693 146.421 16.3131 146.328 15.782C146.203 15.2508 146.016 14.8134 145.766 14.4697C145.485 14.126 145.142 13.876 144.673 13.751C144.236 13.5948 143.643 13.5323 142.956 13.5323C142.363 13.5323 141.77 13.5948 141.177 13.6885C140.584 13.8135 140.022 13.9385 139.46 14.0947C138.93 14.251 138.43 14.4384 137.962 14.5947C137.494 14.7821 137.119 14.9384 136.807 15.0946H136.776L136.027 13.5011C136.245 13.3136 136.589 13.0636 137.119 12.7512C137.65 12.4387 138.274 12.1575 138.992 11.8451C139.71 11.5638 140.491 11.3139 141.302 11.0952C142.145 10.8765 142.956 10.7827 143.768 10.7827C144.923 10.7827 145.891 10.9077 146.702 11.1264C147.483 11.3764 148.138 11.7513 148.638 12.2512C149.137 12.7824 149.48 13.4386 149.699 14.2822C149.917 15.1258 150.011 16.1257 150.011 17.3442V28.2176H152.04V29.8112C151.821 29.8737 151.572 29.9361 151.291 29.9986C151.01 30.0611 150.698 30.1236 150.386 30.1861C150.073 30.2486 149.73 30.3111 149.418 30.3423C149.106 30.3736 148.762 30.4048 148.481 30.4048C148.169 30.4048 147.92 30.4048 147.67 30.3736C147.451 30.3423 147.264 30.2798 147.108 30.1549C146.952 30.0299 146.858 29.8737 146.796 29.6237C146.733 29.405 146.702 29.0925 146.702 28.6863V28.0614C146.546 28.1864 146.328 28.3739 146.016 28.6551C145.703 28.905 145.298 29.1863 144.829 29.4362C144.361 29.6862 143.831 29.9361 143.206 30.1236C142.613 30.3111 141.958 30.4048 141.271 30.4048C140.522 30.4048 139.804 30.3111 139.117 30.0924C138.43 29.8737 137.837 29.5612 137.307 29.155C136.776 28.7176 136.37 28.1864 136.058 27.499C135.746 26.8116 135.652 26.0305 135.652 25.0931ZM142.738 27.9052C142.957 27.9052 143.237 27.8739 143.55 27.8115C143.862 27.749 144.205 27.6552 144.548 27.5615C144.892 27.4365 145.235 27.3115 145.547 27.1553C145.891 26.9991 146.172 26.8116 146.453 26.6241V20.5C145.142 20.5 144.049 20.625 143.144 20.8437C142.27 21.0625 141.552 21.3749 141.021 21.7498C140.491 22.1248 140.116 22.5622 139.897 23.0622C139.679 23.5621 139.554 24.062 139.554 24.5932C139.554 25.1868 139.648 25.718 139.804 26.1242C139.96 26.5304 140.178 26.8741 140.459 27.1553C140.74 27.4053 141.084 27.624 141.458 27.7177C141.895 27.8427 142.301 27.9052 142.738 27.9052Z" fill="#fff"></path>
  <path d="M152.982 26.1328V13.2285H150.609V11.6662C150.953 11.5412 151.296 11.4475 151.608 11.3225C151.952 11.1975 152.201 11.1038 152.326 10.9788C152.701 10.7288 152.982 10.3226 153.263 9.72898C153.356 9.54151 153.45 9.2603 153.606 8.94785C153.731 8.63539 153.856 8.29169 153.981 7.94799C154.105 7.60429 154.23 7.29184 154.324 6.97939C154.418 6.66693 154.511 6.41697 154.542 6.26074H156.665V10.8226H162.19V13.2285H156.665V23.1333C156.665 24.1019 156.665 24.883 156.696 25.4454C156.727 26.0078 156.79 26.414 156.915 26.664C157.04 26.9139 157.227 27.1014 157.477 27.1639C157.726 27.2264 158.07 27.2576 158.507 27.2576H158.538C158.85 27.2576 159.193 27.2264 159.537 27.1952C159.88 27.1639 160.223 27.1014 160.536 27.0389C160.879 26.9764 161.16 26.9139 161.441 26.8515C161.722 26.789 161.94 26.7265 162.096 26.6327H162.127L162.689 28.2575C162.44 28.445 162.065 28.6637 161.597 28.8824C161.129 29.1011 160.629 29.2886 160.099 29.4761C159.568 29.6635 159.006 29.7885 158.413 29.9135C157.82 30.0385 157.289 30.101 156.759 30.101H156.727C156.134 30.101 155.635 30.0385 155.167 29.9135C154.698 29.7885 154.324 29.5698 153.981 29.2574C153.668 28.9449 153.419 28.5387 153.231 28.0388C153.075 27.4764 152.982 26.8515 152.982 26.1328Z" fill="#fff"></path>
  <path d="M162.783 24.745C162.783 23.9638 162.939 23.2452 163.22 22.6203C163.501 21.9954 163.907 21.4642 164.438 20.9643C164.968 20.4956 165.561 20.0894 166.248 19.7457C166.935 19.402 167.684 19.152 168.495 18.9333C169.307 18.7146 170.15 18.5584 171.024 18.4646C171.898 18.3709 172.772 18.3084 173.615 18.2772V17.4023C173.615 16.6212 173.552 15.965 173.459 15.4338C173.334 14.9027 173.146 14.4652 172.897 14.1215C172.616 13.7778 172.272 13.5279 171.804 13.4029C171.367 13.2467 170.774 13.1842 170.087 13.1842C169.494 13.1842 168.901 13.2467 168.308 13.3404C167.715 13.4654 167.153 13.5904 166.591 13.7466C166.061 13.9028 165.561 14.0903 165.093 14.2465C164.625 14.434 164.25 14.5902 163.938 14.7464H163.907L163.158 13.1529C163.376 12.9654 163.72 12.7155 164.25 12.403C164.781 12.0906 165.405 11.8094 166.123 11.4969C166.841 11.2157 167.621 10.9657 168.433 10.747C169.276 10.5283 170.087 10.4346 170.899 10.4346C172.054 10.4346 173.021 10.5596 173.833 10.7783C174.613 11.0282 175.269 11.4032 175.768 11.9031C176.268 12.4343 176.611 13.0904 176.83 13.9341C177.048 14.7777 177.142 15.7775 177.142 16.9961V27.8695H179.171V29.463C178.952 29.5255 178.702 29.588 178.422 29.6505C178.141 29.713 177.829 29.7755 177.516 29.838C177.204 29.9005 176.861 29.9629 176.549 29.9942C176.237 30.0254 175.893 30.0567 175.612 30.0567C175.3 30.0567 175.05 30.0567 174.801 30.0254C174.582 29.9942 174.395 29.9317 174.239 29.8067C174.083 29.6817 173.989 29.5255 173.927 29.2755C173.864 29.0568 173.833 28.7444 173.833 28.3382V27.7133C173.677 27.8383 173.459 28.0257 173.146 28.3069C172.834 28.5569 172.428 28.8381 171.96 29.0881C171.492 29.338 170.961 29.588 170.337 29.7755C169.744 29.9629 169.088 30.0567 168.402 30.0567C167.653 30.0567 166.935 29.9629 166.248 29.7442C165.561 29.5255 164.968 29.2131 164.438 28.8069C163.907 28.3694 163.501 27.8383 163.189 27.1509C162.877 26.4635 162.783 25.6823 162.783 24.745ZM169.9 27.557C170.119 27.557 170.399 27.5258 170.712 27.4633C171.024 27.4008 171.367 27.3071 171.71 27.2133C172.054 27.0884 172.397 26.9634 172.709 26.8072C173.053 26.6509 173.334 26.4635 173.615 26.276V20.1519C172.304 20.1519 171.211 20.2769 170.306 20.4956C169.432 20.7143 168.714 21.0268 168.183 21.4017C167.653 21.7766 167.278 22.2141 167.06 22.714C166.841 23.2139 166.716 23.7139 166.716 24.245C166.716 24.8387 166.81 25.3699 166.966 25.7761C167.122 26.1823 167.34 26.5259 167.621 26.8072C167.902 27.0571 168.246 27.2758 168.62 27.3696C169.057 27.4946 169.463 27.557 169.9 27.557Z" fill="#fff"></path>
        </svg>