<svg xmlns="http://www.w3.org/2000/svg" xmlns:xlink="http://www.w3.org/1999/xlink" width="80" zoomAndPan="magnify" viewBox="0 0 60 32.999998" height="44" preserveAspectRatio="xMidYMid meet" version="1.0"><path fill="#616161" d="M 28 31.941406 C 28.261719 32.203125 28.5625 32.40625 28.90625 32.546875 C 29.246094 32.6875 29.601562 32.757812 29.972656 32.757812 C 30.34375 32.757812 30.699219 32.6875 31.042969 32.546875 C 31.382812 32.40625 31.683594 32.203125 31.945312 31.941406 L 58.917969 4.96875 C 59.183594 4.707031 59.390625 4.402344 59.535156 4.0625 C 59.679688 3.71875 59.75 3.359375 59.753906 2.988281 C 59.753906 2.617188 59.683594 2.257812 59.542969 1.914062 C 59.402344 1.570312 59.199219 1.265625 58.933594 1.003906 C 58.671875 0.738281 58.367188 0.539062 58.023438 0.394531 C 57.679688 0.253906 57.324219 0.183594 56.949219 0.183594 C 56.578125 0.1875 56.21875 0.261719 55.878906 0.402344 C 55.535156 0.546875 55.234375 0.753906 54.972656 1.019531 L 29.976562 26.019531 L 4.980469 1.023438 C 4.71875 0.777344 4.414062 0.589844 4.078125 0.457031 C 3.742188 0.328125 3.390625 0.265625 3.03125 0.273438 C 2.667969 0.28125 2.320312 0.351562 1.988281 0.496094 C 1.65625 0.636719 1.359375 0.835938 1.105469 1.089844 C 0.847656 1.34375 0.648438 1.640625 0.507812 1.972656 C 0.367188 2.304688 0.292969 2.652344 0.285156 3.015625 C 0.277344 3.375 0.339844 3.726562 0.46875 4.0625 C 0.597656 4.402344 0.785156 4.703125 1.035156 4.96875 Z M 28 31.941406 " fill-opacity="1" fill-rule="nonzero"/><path stroke-linecap="butt" transform="matrix(0.51844, 0.541959, -0.541959, 0.51844, 5.789837, 5.143455)" fill="none" stroke-linejoin="miter" d="M 0.000301951 0.499046 L 29.337667 0.496703 " stroke="#616161" stroke-width="1" stroke-opacity="1" stroke-miterlimit="4"/></svg>